<svg xmlns="http://www.w3.org/2000/svg" version="1.1" xmlns:xlink="http://www.w3.org/1999/xlink" xmlns:svgjs="http://svgjs.dev/svgjs" width="2000" height="1247" viewBox="0 0 2000 1247"><g transform="matrix(1,0,0,1,-1.2121212121212466,0.504858299595071)"><svg viewBox="0 0 396 247" data-background-color="#ffffff" preserveAspectRatio="xMidYMid meet" height="1247" width="2000" xmlns="http://www.w3.org/2000/svg" xmlns:xlink="http://www.w3.org/1999/xlink"><g id="tight-bounds" transform="matrix(1,0,0,1,0.2400000000000091,-0.09999999999999432)"><svg viewBox="0 0 395.52 247.2" height="247.2" width="395.52"><g><svg></svg></g><g><svg viewBox="0 0 395.52 247.2" height="247.2" width="395.52"><g transform="matrix(1,0,0,1,75.54432,81.38402723159784)"><svg viewBox="0 0 244.43135999999998 84.4319455368043" height="84.4319455368043" width="244.43135999999998"><g><svg viewBox="0 0 244.43135999999998 84.4319455368043" height="84.4319455368043" width="244.43135999999998"><g><svg viewBox="0 0 244.43135999999998 84.4319455368043" height="84.4319455368043" width="244.43135999999998"><g><svg viewBox="0 0 244.43135999999998 84.4319455368043" height="84.4319455368043" width="244.43135999999998"><g id="textblocktransform"><svg viewBox="0 0 244.43135999999998 84.4319455368043" height="84.4319455368043" width="244.43135999999998" id="textblock"><g><svg viewBox="0 0 244.43135999999998 84.4319455368043" height="84.4319455368043" width="244.43135999999998"><g transform="matrix(1,0,0,1,0,0)"><svg width="244.43135999999998" viewBox="1.95 -35.6 139.24 48.1" height="84.4319455368043" data-palette-color="#010c80"><path d="M25.1-30.65Q22.9-31.5 21.9-31.6 20.9-31.7 19.48-31.78 18.05-31.85 16.13-31.85 14.2-31.85 11.55-31.6L11.55-31.6 11.55-1.75 17.05-1.6Q22.2-1.8 24.65-2.9L24.65-2.9Q31.3-5.95 31.35-16.7L31.35-16.7Q31.35-20.9 30.4-23.9 29.45-26.9 28.38-28.35 27.3-29.8 25.1-30.65ZM8.1-33.35L8.1-33.35 17.8-33.6Q22.25-33.6 25.6-32.85 28.95-32.1 31.75-30.3L31.75-30.3Q37.45-26.65 37.45-16.75L37.45-16.75Q37.45 0 17.05 0L17.05 0 1.95 0 1.95-1.3 6.3-1.7 6.3-31.65 1.95-32.2 1.95-33.5Q5-33.35 8.1-33.35ZM50.6-32.58Q50.6-31.35 49.75-30.48 48.9-29.6 47.62-29.6 46.35-29.6 45.5-30.45 44.65-31.3 44.65-32.58 44.65-33.85 45.5-34.73 46.35-35.6 47.6-35.6 48.85-35.6 49.72-34.7 50.6-33.8 50.6-32.58ZM53.6 0L42.1 0 42.1-1.2 45.4-1.45 45.4-22.7 41-22.85 41-24 50.3-24.65 50.3-1.45 53.6-1.2 53.6 0ZM64.55-16.65L64.55-16.65 64.55-2.75Q66.95-0.9 70.5-0.9L70.5-0.9Q72.4-0.9 73.77-1.7 75.15-2.5 75.92-3.7 76.7-4.9 77.1-6.75L77.1-6.75Q77.8-9.7 77.8-14.2 77.8-18.7 76.25-21.05 74.7-23.4 71.9-23.4 69.1-23.4 66.82-21.03 64.55-18.65 64.55-16.65ZM73.55-24.95L73.55-24.95Q77.7-24.95 80.5-22.08 83.3-19.2 83.3-12.98 83.3-6.75 79.95-3.08 76.6 0.6 70.4 0.6L70.4 0.6Q67.15 0.6 64.55-0.85L64.55-0.85 64.55 11.05 68.05 11.3 68.05 12.5 56.55 12.5 56.55 11.3 59.65 11.05 59.65-22.8 55.35-23 55.35-24.15 64.35-24.7 64.2-20.35 64.65-20.35Q66-22.55 68.4-23.75 70.8-24.95 73.55-24.95ZM92.54-5.4L92.54-5.4Q92.54-2.15 95.19-1.55L95.19-1.55Q95.79-1.4 96.34-1.4L96.34-1.4Q98.24-1.4 100.29-3.03 102.34-4.65 102.44-7.4L102.44-7.4 102.44-11.7Q92.54-11.6 92.54-5.4ZM94.54 0.6L94.54 0.6Q91.69 0.6 89.67-0.98 87.64-2.55 87.64-5.4L87.64-5.4Q87.69-9.25 91.52-11.15 95.34-13.05 102.44-13.05L102.44-13.05 102.44-17.35Q102.44-23.7 97.84-23.7L97.84-23.7Q95.49-23.7 94.04-21.75L94.04-21.75Q93.04-20.4 93.04-18.4L93.04-18.4Q93.04-17.55 93.24-16.6L93.24-16.6Q92.54-16.1 91.82-16.1 91.09-16.1 90.39-16.4L90.39-16.4Q88.79-17 88.79-18.7L88.79-18.7Q88.79-21 90.44-22.5L90.44-22.5Q93.14-24.95 97.89-24.95 102.64-24.95 104.79-22.93 106.94-20.9 106.94-16.55L106.94-16.55 106.94-1.4 111.14-1.2 111.19-0.05 102.84 0.55 102.39-3.9Q100.09 0.6 94.54 0.6ZM121.04-19.15L121.49-19.1Q123.74-24.9 130.54-24.9L130.54-24.9Q133.94-24.9 136.04-22.88 138.14-20.85 138.14-17.1L138.14-17.1Q138.14-10.65 137.74-1.45L137.74-1.45 141.19-1.2 141.19 0 130.14 0 130.14-1.2 132.84-1.4Q133.24-12.7 133.24-14.35 133.24-16 133.19-16.88 133.14-17.75 132.92-19.03 132.69-20.3 132.24-21.05L132.24-21.05Q131.14-22.9 128.79-22.9L128.79-22.9Q125.59-22.9 123.54-20.25 121.49-17.6 121.49-14.5L121.49-14.5 121.49-1.45 125.24-1.2 125.24 0 113.29 0 113.29-1.2 116.59-1.45 116.59-22.6 112.34-22.8 112.34-23.95 121.29-24.55 121.04-19.15Z" opacity="1" transform="matrix(1,0,0,1,0,0)" fill="#010c80" class="wordmark-text-0" data-fill-palette-color="primary" id="text-0"></path></svg></g></svg></g></svg></g></svg></g></svg></g></svg></g></svg></g><path d="M215.862 75.384L215.862 21.068 10.798 21.068 10.798 226.132 215.862 226.132 215.862 171.816 208.248 171.816 208.248 218.518 18.412 218.518 18.412 28.682 208.248 28.682 208.248 75.384Z" fill="#010c80" stroke="transparent" data-fill-palette-color="primary"></path></svg></g><defs></defs></svg><rect width="395.52" height="247.2" fill="none" stroke="none" visibility="hidden"></rect></g></svg></g></svg>