<svg xmlns="http://www.w3.org/2000/svg" version="1.1" xmlns:xlink="http://www.w3.org/1999/xlink" xmlns:svgjs="http://svgjs.dev/svgjs" width="1000" height="623" viewBox="0 0 1000 623"><g transform="matrix(1,0,0,1,-0.6060606060606233,0.2522267206477409)"><svg viewBox="0 0 396 247" data-background-color="#ffffff" preserveAspectRatio="xMidYMid meet" height="623" width="1000" xmlns="http://www.w3.org/2000/svg" xmlns:xlink="http://www.w3.org/1999/xlink"><g id="tight-bounds" transform="matrix(1,0,0,1,0.2400000000000091,-0.09999999999999432)"><svg viewBox="0 0 395.52 247.2" height="247.2" width="395.52"><g><svg></svg></g><g><svg viewBox="0 0 395.52 247.2" height="247.2" width="395.52"><mask id="7697fddb-ae33-44fc-ab1d-cbeb0b416c36"><rect width="395.52" height="247.2" fill="white"></rect><g transform="matrix(1,0,0,1,0,40.635346613545806)" id="clone"><svg viewBox="0 0 395.52 165.92930677290838" height="165.92930677290838" width="395.52"><g><svg viewBox="0 0 395.52 165.92930677290838" height="165.92930677290838" width="395.52"><g><svg viewBox="0 0 395.52 165.92930677290838" height="165.92930677290838" width="395.52"><g><svg viewBox="0 0 395.52 165.92930677290838" height="165.92930677290838" width="395.52"><g id="SvgjsG1090"><svg viewBox="0 0 395.52 165.92930677290838" height="165.92930677290838" width="395.52" id="SvgjsSvg1089"><g><svg viewBox="0 0 395.52 165.92930677290838" height="165.92930677290838" width="395.52"><g transform="matrix(1,0,0,1,0,0)"><svg width="395.52" viewBox="0.15000009536743164 -39.849998474121094 126.48999786376953 53.64999771118164" height="165.92930677290838" data-palette-color="#000000"><path d="M33.2-18.15L33.2-18.15Q33.2-12.9 31.28-8.8 29.35-4.7 25.58-2.35 21.8 0 16.25 0L16.25 0 3.9 0 3.9-33.3Q3.9-33.35 3.73-34.08 3.55-34.8 3.38-35.58 3.2-36.35 3.15-36.5L3.15-36.5 14.4-36.5Q20.3-36.5 24.5-34.45 28.7-32.4 30.95-28.35 33.2-24.3 33.2-18.15ZM27.3-18.15L27.3-18.15Q27.3-21.5 26.5-24.15 25.7-26.8 24.05-28.65 22.4-30.5 19.9-31.45 17.4-32.4 14-32.4L14-32.4 9.5-32.4 9.5-4.1 15.75-4.1Q20-4.1 22.53-6.05 25.05-8 26.18-11.2 27.3-14.4 27.3-18.15ZM44.55-33.5L44.55-33.5Q44.55-32.1 43.6-31.1 42.65-30.1 41.2-30.1L41.2-30.1Q39.8-30.1 38.82-31.1 37.85-32.1 37.85-33.5L37.85-33.5Q37.85-34.9 38.82-35.88 39.8-36.85 41.2-36.85L41.2-36.85Q42.6-36.85 43.57-35.88 44.55-34.9 44.55-33.5ZM38.15-24.85L43.7-24.85 43.7 0 38.75 0 38.75-22 38.15-24.85ZM49.75-24.65L54.95-25.3Q55.25-24.55 55.47-23.7 55.7-22.85 55.8-22.05L55.8-22.05Q57-23.65 58.97-24.55 60.95-25.45 62.9-25.45L62.9-25.45Q65.59-25.45 67.57-24.38 69.55-23.3 70.84-21.43 72.15-19.55 72.77-17.28 73.4-15 73.4-12.6L73.4-12.6Q73.4-9.15 72.15-6.13 70.9-3.1 68.37-1.25 65.84 0.6 62.05 0.6L62.05 0.6Q60.55 0.6 58.9 0.1 57.25-0.4 56.1-1.4L56.1-1.4Q56.2-0.7 56.2 0.05 56.2 0.8 56.2 1.3L56.2 1.3 56.2 7.95 56.9 10.8 51.25 10.8 51.25-17.7Q51.25-18.7 51.12-20 51-21.3 50.67-22.55 50.35-23.8 49.75-24.65L49.75-24.65ZM61.5-21.5L61.5-21.5Q59.95-21.5 58.52-20.6 57.1-19.7 56.2-18.45L56.2-18.45 56.2-10.2Q56.2-8.35 56.72-6.75 57.25-5.15 58.5-4.15 59.75-3.15 61.8-3.15L61.8-3.15Q63.6-3.15 64.82-4 66.05-4.85 66.8-6.25 67.55-7.65 67.82-9.25 68.09-10.85 68.09-12.35L68.09-12.35Q68.09-13.9 67.77-15.5 67.45-17.1 66.67-18.48 65.9-19.85 64.62-20.68 63.35-21.5 61.5-21.5ZM87.94-25.45L87.94-25.45Q91.94-25.45 94.02-23.35 96.09-21.25 96.09-17.3L96.09-17.3 96.09-5.45Q96.09-4.25 96.52-3.83 96.94-3.4 97.54-3.4L97.54-3.4Q97.99-3.4 98.49-3.53 98.99-3.65 99.44-3.85L99.44-3.85 100.39-0.85Q99.44-0.3 98.14 0.08 96.84 0.45 95.64 0.45L95.64 0.45Q94.09 0.45 93.02-0.3 91.94-1.05 91.64-2.95L91.64-2.95Q90.19-1.25 88.27-0.35 86.34 0.55 84.14 0.55L84.14 0.55Q81.19 0.55 79.19-1.18 77.19-2.9 77.19-5.95L77.19-5.95Q77.19-8.7 78.52-10.43 79.84-12.15 81.99-13.03 84.14-13.9 86.57-14.23 88.99-14.55 91.14-14.55L91.14-14.55 91.14-17.45Q91.14-19.5 90.29-20.65 89.44-21.8 87.24-21.8L87.24-21.8Q85.44-21.8 83.69-20.98 81.94-20.15 80.39-18.9L80.39-18.9 78.19-22.25Q80.29-23.85 82.82-24.65 85.34-25.45 87.94-25.45ZM91.14-9.55L91.14-10.95Q89.94-10.95 88.42-10.83 86.89-10.7 85.49-10.28 84.09-9.85 83.19-8.9 82.29-7.95 82.29-6.3L82.29-6.3Q82.29-4.85 83.34-4.13 84.39-3.4 85.79-3.4L85.79-3.4Q87.44-3.4 88.62-4.33 89.79-5.25 90.47-6.65 91.14-8.05 91.14-9.55L91.14-9.55ZM102.24-24.65L107.54-25.3Q107.89-24.5 108.12-23.63 108.34-22.75 108.44-21.9L108.44-21.9Q109.94-23.35 111.99-24.43 114.04-25.5 116.14-25.5L116.14-25.5Q118.94-25.5 120.59-24.38 122.24-23.25 122.94-21.28 123.64-19.3 123.64-16.7L123.64-16.7 123.64 0 118.74 0 118.74-15.65Q118.74-17.05 118.54-18.35 118.34-19.65 117.54-20.5 116.74-21.35 114.99-21.35L114.99-21.35Q113.94-21.35 112.77-20.88 111.59-20.4 110.57-19.73 109.54-19.05 108.74-18.3L108.74-18.3 108.74 0 103.84 0 103.84-17.7Q103.84-18.65 103.72-19.98 103.59-21.3 103.24-22.58 102.89-23.85 102.24-24.65L102.24-24.65Z" opacity="1" transform="matrix(1,0,0,1,0,0)" fill="black" class="wordmark-text-0" id="SvgjsPath1088" stroke-width="5" stroke="black" stroke-linejoin="round"></path></svg></g></svg></g></svg></g></svg></g><g></g></svg></g></svg></g></svg></g></mask><g mask="url(#7697fddb-ae33-44fc-ab1d-cbeb0b416c36)"><g><path xmlns="http://www.w3.org/2000/svg" d="M299.518 124.277v0c0 23.704-4.334 44.812-13.003 63.324-8.714 18.512-21.582 33.073-38.604 43.683-17.067 10.61-38.13 15.916-63.188 15.916v0h-83.642v-225.528c0-0.226-0.384-1.987-1.151-5.282-0.813-3.251-1.603-6.637-2.371-10.159-0.813-3.477-1.332-5.554-1.557-6.231v0h76.191c26.639 0 49.44 4.628 68.404 13.884 18.963 9.256 33.524 23.027 43.683 41.313 10.159 18.286 15.238 41.313 15.238 69.08zM259.56 124.277v0c0-15.125-1.806-28.671-5.418-40.635-3.612-11.965-9.143-22.124-16.593-30.477-7.45-8.353-16.819-14.674-28.106-18.963-11.288-4.289-24.607-6.434-39.959-6.434v0h-30.476v191.664h42.328c19.189 0 34.495-4.402 45.919-13.206 11.378-8.804 19.618-20.431 24.72-34.879 5.057-14.448 7.585-30.138 7.585-47.07z" fill="#000000" fill-rule="nonzero" stroke="none" stroke-width="1" stroke-linecap="butt" stroke-linejoin="miter" stroke-miterlimit="10" stroke-dasharray="" stroke-dashoffset="0" font-family="none" font-weight="none" font-size="none" text-anchor="none" style="mix-blend-mode: normal" data-fill-palette-color="tertiary"></path></g></g><g transform="matrix(1,0,0,1,0,40.635346613545806)"><svg viewBox="0 0 395.52 165.92930677290838" height="165.92930677290838" width="395.52"><g><svg viewBox="0 0 395.52 165.92930677290838" height="165.92930677290838" width="395.52"><g><svg viewBox="0 0 395.52 165.92930677290838" height="165.92930677290838" width="395.52"><g><svg viewBox="0 0 395.52 165.92930677290838" height="165.92930677290838" width="395.52"><g id="textblocktransform"><svg viewBox="0 0 395.52 165.92930677290838" height="165.92930677290838" width="395.52" id="textblock"><g><svg viewBox="0 0 395.52 165.92930677290838" height="165.92930677290838" width="395.52"><g transform="matrix(1,0,0,1,0,0)"><svg width="395.52" viewBox="0.15000009536743164 -39.849998474121094 126.48999786376953 53.64999771118164" height="165.92930677290838" data-palette-color="#000000"><path d="M33.2-18.15L33.2-18.15Q33.2-12.9 31.28-8.8 29.35-4.7 25.58-2.35 21.8 0 16.25 0L16.25 0 3.9 0 3.9-33.3Q3.9-33.35 3.73-34.08 3.55-34.8 3.38-35.58 3.2-36.35 3.15-36.5L3.15-36.5 14.4-36.5Q20.3-36.5 24.5-34.45 28.7-32.4 30.95-28.35 33.2-24.3 33.2-18.15ZM27.3-18.15L27.3-18.15Q27.3-21.5 26.5-24.15 25.7-26.8 24.05-28.65 22.4-30.5 19.9-31.45 17.4-32.4 14-32.4L14-32.4 9.5-32.4 9.5-4.1 15.75-4.1Q20-4.1 22.53-6.05 25.05-8 26.18-11.2 27.3-14.4 27.3-18.15ZM44.55-33.5L44.55-33.5Q44.55-32.1 43.6-31.1 42.65-30.1 41.2-30.1L41.2-30.1Q39.8-30.1 38.82-31.1 37.85-32.1 37.85-33.5L37.85-33.5Q37.85-34.9 38.82-35.88 39.8-36.85 41.2-36.85L41.2-36.85Q42.6-36.85 43.57-35.88 44.55-34.9 44.55-33.5ZM38.15-24.85L43.7-24.85 43.7 0 38.75 0 38.75-22 38.15-24.85ZM49.75-24.65L54.95-25.3Q55.25-24.55 55.47-23.7 55.7-22.85 55.8-22.05L55.8-22.05Q57-23.65 58.97-24.55 60.95-25.45 62.9-25.45L62.9-25.45Q65.59-25.45 67.57-24.38 69.55-23.3 70.84-21.43 72.15-19.55 72.77-17.28 73.4-15 73.4-12.6L73.4-12.6Q73.4-9.15 72.15-6.13 70.9-3.1 68.37-1.25 65.84 0.6 62.05 0.6L62.05 0.6Q60.55 0.6 58.9 0.1 57.25-0.4 56.1-1.4L56.1-1.4Q56.2-0.7 56.2 0.05 56.2 0.8 56.2 1.3L56.2 1.3 56.2 7.95 56.9 10.8 51.25 10.8 51.25-17.7Q51.25-18.7 51.12-20 51-21.3 50.67-22.55 50.35-23.8 49.75-24.65L49.75-24.65ZM61.5-21.5L61.5-21.5Q59.95-21.5 58.52-20.6 57.1-19.7 56.2-18.45L56.2-18.45 56.2-10.2Q56.2-8.35 56.72-6.75 57.25-5.15 58.5-4.15 59.75-3.15 61.8-3.15L61.8-3.15Q63.6-3.15 64.82-4 66.05-4.85 66.8-6.25 67.55-7.65 67.82-9.25 68.09-10.85 68.09-12.35L68.09-12.35Q68.09-13.9 67.77-15.5 67.45-17.1 66.67-18.48 65.9-19.85 64.62-20.68 63.35-21.5 61.5-21.5ZM87.94-25.45L87.94-25.45Q91.94-25.45 94.02-23.35 96.09-21.25 96.09-17.3L96.09-17.3 96.09-5.45Q96.09-4.25 96.52-3.83 96.94-3.4 97.54-3.4L97.54-3.4Q97.99-3.4 98.49-3.53 98.99-3.65 99.44-3.85L99.44-3.85 100.39-0.85Q99.44-0.3 98.14 0.08 96.84 0.45 95.64 0.45L95.64 0.45Q94.09 0.45 93.02-0.3 91.94-1.05 91.64-2.95L91.64-2.95Q90.19-1.25 88.27-0.35 86.34 0.55 84.14 0.55L84.14 0.55Q81.19 0.55 79.19-1.18 77.19-2.9 77.19-5.95L77.19-5.95Q77.19-8.7 78.52-10.43 79.84-12.15 81.99-13.03 84.14-13.9 86.57-14.23 88.99-14.55 91.14-14.55L91.14-14.55 91.14-17.45Q91.14-19.5 90.29-20.65 89.44-21.8 87.24-21.8L87.24-21.8Q85.44-21.8 83.69-20.98 81.94-20.15 80.39-18.9L80.39-18.9 78.19-22.25Q80.29-23.85 82.82-24.65 85.34-25.45 87.94-25.45ZM91.14-9.55L91.14-10.95Q89.94-10.95 88.42-10.83 86.89-10.7 85.49-10.28 84.09-9.85 83.19-8.9 82.29-7.95 82.29-6.3L82.29-6.3Q82.29-4.85 83.34-4.13 84.39-3.4 85.79-3.4L85.79-3.4Q87.44-3.4 88.62-4.33 89.79-5.25 90.47-6.65 91.14-8.05 91.14-9.55L91.14-9.55ZM102.24-24.65L107.54-25.3Q107.89-24.5 108.12-23.63 108.34-22.75 108.44-21.9L108.44-21.9Q109.94-23.35 111.99-24.43 114.04-25.5 116.14-25.5L116.14-25.5Q118.94-25.5 120.59-24.38 122.24-23.25 122.94-21.28 123.64-19.3 123.64-16.7L123.64-16.7 123.64 0 118.74 0 118.74-15.65Q118.74-17.05 118.54-18.35 118.34-19.65 117.54-20.5 116.74-21.35 114.99-21.35L114.99-21.35Q113.94-21.35 112.77-20.88 111.59-20.4 110.57-19.73 109.54-19.05 108.74-18.3L108.74-18.3 108.74 0 103.84 0 103.84-17.7Q103.84-18.65 103.72-19.98 103.59-21.3 103.24-22.58 102.89-23.85 102.24-24.65L102.24-24.65Z" opacity="1" transform="matrix(1,0,0,1,0,0)" fill="#000000" class="wordmark-text-0" data-fill-palette-color="primary" id="text-0"></path></svg></g></svg></g></svg></g></svg></g><g></g></svg></g></svg></g></svg></g></svg></g><defs></defs></svg><rect width="395.52" height="247.2" fill="none" stroke="none" visibility="hidden"></rect></g></svg></g></svg>